<svg width="841" height="619" viewBox="0 0 841 619" fill="none" xmlns="http://www.w3.org/2000/svg">
<path d="M2.61051 211.5C-4.88949 161.5 10.1105 151 127.611 33L849.111 1V529.5C844.444 550.833 831.511 593.5 817.111 593.5C802.711 593.5 765.777 610.167 749.111 618.5H613.611L370.611 593.5L192.111 529.5L88.6106 440C79.1106 421 55.8106 375.9 38.6106 347.5C17.1106 312 10.1105 261.5 2.61051 211.5Z" fill="#C1EA1E" fill-opacity="0.54" stroke="black"/>
<path d="M80.9999 193C69.9999 114.5 102.5 164.5 167 46.5H792L849 257C847.833 266.5 840.5 294.8 820.5 332C800.5 369.2 776.5 371.5 767 368L720.5 435.5H613.5C551.5 436.833 414.7 438.7 363.5 435.5C312.3 432.3 239.5 408.167 209.5 396.5L109.5 332C103.667 311.833 89.7999 255.8 80.9999 193Z" fill="#B5A033" fill-opacity="0.38" stroke="black"/>
</svg>
